<svg xmlns="http://www.w3.org/2000/svg" width="196" height="50" viewBox="0 0 196 50">
<!-- SVG created with Arrow, by QuiverAI (https://quiver.ai) -->
  <path d="m27.85 1h-6.55l7.77 7.77h-20.48v5.83l12.53 5.85h-6.87l-6.77-6.73v-8.44h18.39l-7.15-4.28h-16.22v15.45l7.81 7.83-7.81 8.53v15.92h15.51l4.78-3.92h-16.98v-10.06l7.9-7.83h13.75l-7.38 6.71h6.49l9.94-8.97-9.89-9.51h-6.54l6.98 6.76h-13.53l-4.98-4.97v-4h31.19l-11.89-11.94z" fill="#4E8B77"/>
  <path d="m10.01 36.11v3.45h18.48l-7.27 8.7h6.5l11.96-11.99h-24.64l7.15-8.53h-8.24l-3.94 4.47v3.9z" fill="#4E8B77"/>
  <path d="m46.99 16.2v16.98h13.04v-3.29h-9.02v-3.65h7.36v-3.01h-7.38v-3.76h8.62v-3.27h-12.62z" fill="#111D1D"/>
  <path d="m63.11 16.2v16.88h4.3v-9.5l7.8 9.5h3.6v-16.88h-3.89v10.19l-7.97-10.19h-3.84z" fill="#111D1D"/>
  <path d="m80.58 16.2v3.29h5.32v13.59h3.99v-13.59h5.35v-3.29h-14.66z" fill="#111D1D"/>
  <path d="m96.73 16.2v16.88h13.39v-3.29h-9.38v-3.65h8.07v-3.01h-8.04v-3.66h9.06v-3.27h-13.1z" fill="#111D1D"/>
  <path d="m112.8 16.2v16.88h12.76v-3.49h-8.69v-13.39h-4.07z" fill="#111D1D"/>
  <path d="m127.3 16.2v16.88h13.16v-3.29h-9.15v-3.65h7.76v-3.01h-7.73v-3.66h8.63v-3.27h-12.67z" fill="#111D1D"/>
  <path d="m151.2 33.56c4.01 0 6.23-1.78 7.49-3.68l-2.69-2.43c-1.09 1.46-2.47 2.44-4.56 2.44-3.5 0-4.91-2.53-4.91-5.09 0-2.68 1.56-5.38 5.06-5.38 1.84 0 3.32 0.96 4.5 2.37l2.74-2.53c-1.93-2.25-4.18-3.25-7.21-3.25-6.12 0-8.95 4.37-8.95 8.71 0 4.65 2.97 8.84 8.53 8.84z" fill="#111D1D"/>
  <path d="m161.3 16.2v16.88h3.99v-6.89h7.4v6.89h3.99v-16.88h-3.92v6.63h-7.42v-6.63h-4.04z" fill="#111D1D"/>
  <path d="m178.9 16.2v3.29h5.56v13.59h3.86v-13.59h5.82v-3.29h-15.24z" fill="#111D1D"/>
</svg>