<svg xmlns="http://www.w3.org/2000/svg" width="250" height="249" fill="none" viewBox="0 0 250 249">
<!-- SVG created with Arrow, by QuiverAI (https://quiver.ai) -->
  <path d="m249.8 0.32h-249.6v248h249.6v-248z" fill="#F2ECD0"/>
  <path d="m239.7 90.36c-11.72-42.19-51.47-84.76-114.8-84.76-65.25 0-118.6 51.55-118.6 119.2 0 64.47 52.71 118.3 116.7 118.3 54.96 0 103-38.93 117.6-92.93h-16.98c-9.78 33.58-35.09 59.86-64.19 69.91l0.29-0.09c10.38-9.95 18.05-22.09 20.33-32.31 16.57-14.8 26.72-33.27 28.6-55.25h34.09c0.7-6.52 0.16-12.59-0.22-16.44h-89.79c7.64 6.45 12.6 12.51 15.41 16.42h23.46c-1.42 15.34-8.83 28.83-18.47 39.46-2.78 28.14-25.73 54.06-55.63 54.06-48.23 0-91.48-40.22-95.56-93.69h74.5c-8.31-6.64-12.79-12.59-14.65-16.12h-24.54c1.53-14.21 7.61-28.41 18.36-39.64 1.12-29.87 24.26-55.16 54.07-55.16 34.46 0 70.14 25.58 87.1 60.14h-19.87c-13.34-24.04-39.08-41.39-68.73-41.56-26.43-0.15-42.28 21.64-42.06 42.94 0.27 26.38 22.45 40.24 37.02 52.33 12.53 10.26 24 18.19 23.86 31.48-0.11 13.29-11.07 24.81-26.12 24.81-26.97 0-47.52-17.66-59.41-41.62h-16.6c10.8 31.98 39.84 57.94 75.89 57.9 26.49-0.04 42.99-22.26 43.02-40.39 0.06-19.83-13.02-33.5-29.05-45.39-13.85-10.26-32.76-21.28-32.57-39.32 0.16-13.54 10.61-26.39 26.66-26.39 23.1 0 47.91 16.55 58.25 41.4h53.33l-0.73-7.3zm-199.3 25.77h-18.67c3.39-41.51 30.22-72.92 68.51-88.88-9.99 10.12-17.89 21.33-22.03 33.39-16.43 15.09-25.93 33.52-27.81 55.49z" fill="url(#paint0_linear_370_1088)"/>
  <path d="m129.6 75.28c-8.36-1.35-10.69 3.68-10.69 8.71 0 5.02 6.94 11.06 10.85 13.67h35.37c-8.19-12.71-18.99-19.51-35.53-22.38z" fill="url(#paint1_linear_370_1088)"/>
  <path d="m84.32 150c9 15.15 21.69 22.75 36.84 22.75 5.92 0 8.16-4.82 8.16-7.64 0-5.7-4.34-9.48-11.21-15.07l-33.79-0.04z" fill="url(#paint2_linear_370_1088)"/>
  <defs>
    <linearGradient id="paint0_linear_370_1088" x1="6.336" x2="211.7" y1="5.596" y2="250.5" gradientUnits="userSpaceOnUse">
      <stop stop-color="#253437" offset="0"/>
      <stop stop-color="#2B3C3F" offset="1"/>
    </linearGradient>
    <linearGradient id="paint1_linear_370_1088" x1="118.7" x2="148.8" y1="74.87" y2="107.6" gradientUnits="userSpaceOnUse">
      <stop stop-color="#243437" offset="0"/>
      <stop stop-color="#2B3C3F" offset="1"/>
    </linearGradient>
    <linearGradient id="paint2_linear_370_1088" x1="84.32" x2="108.3" y1="149.9" y2="185.8" gradientUnits="userSpaceOnUse">
      <stop stop-color="#243437" offset="0"/>
      <stop stop-color="#2B3C3F" offset="1"/>
    </linearGradient>
  </defs>
</svg>