<svg xmlns="http://www.w3.org/2000/svg" width="636" height="205" viewBox="0 0 636 205">
<!-- SVG created with Arrow, by QuiverAI (https://quiver.ai) -->
  <path d="m635.2 0.26h-634.6v204.2h634.6v-204.2z" fill="#F1EFE2"/>
  <path d="m8.51 50.43 68.4-42.72 13.2 8.17-68.47 42.61 11.55 7.32v11.23l-9.16-5.44v55.23l9.16-6.1 28.44-17.66-12.85-8.38v-16.67l28.01 17.94 14.42-9.06-19.19-11.54 4.67-3.02 42.69 25.69 29.47-28.36v-18.55l-70.43-43.31-1.61-0.1-68.3 42.72z" fill="#49816A"/>
  <path d="m22.11 58.69 55.17-31.88 42.1 25.41 29.47-2.02-70.94-42.49-55.8 50.98z" fill="#B89B59"/>
  <path d="m33.19 66.21 43.47-23.6 41.96 24.61-0.1 18.37-41.34-24.82-28.32 17.02v33.37l-15.67 10.59v-55.54z" fill="#B89B59"/>
  <path d="m148.8 135-28.89-17.41-42.77 27.23-26.57-18.86-27.33 18.66 54.41 33.26 41.68-25.51 14.53-7.86-14.79-8.63-41.94 25.9-37.84-23.54-8.56 5.63 45.96 34.05 0.77 19.68 71.33-43.83 0.01-18.77z" fill="#B89B59"/>
  <path d="m178.8 62.97h34.9v10.84h-22.6v21.37h17.76v10.84h-17.76v22.63h22.6v12.06h-34.9v-77.74z" fill="#141919"/>
  <path d="m221.5 62.97h15.54l13.13 47.63h0.25v-47.63h10.41v77.74h-13.01l-15.02-54.68h-0.25v54.68h-11.05v-77.74z" fill="#141919"/>
  <path d="m277.3 73.81h-11.83v-10.84h37.04v10.84h-12.32v66.91h-12.89v-66.91z" fill="#141919"/>
  <path d="m307.1 62.97h33.04v10.84h-21.45v21.37h17.34v10.29h-17.34v23.18h21.45v12.06h-33.04v-77.74z" fill="#141919"/>
  <path d="m346.8 62.97h12.89v65.83h19.28v11.92h-32.17v-77.75z" fill="#141919"/>
  <path d="m383.9 62.97h34.01v10.84h-21.69v21.37h17.33v10.29h-17.33v23.18h21.69v12.06h-34.01v-77.74z" fill="#141919"/>
  <path d="m425 120.4v-37.19c0-13.29 5.26-20.74 18.52-20.74 13.87 0 17.79 7.96 17.79 19.78v8.41h-11.58v-9.56c0-5.32-1.58-8.35-6.34-8.35-4.75 0-5.92 3.87-5.92 9.19v39.72c0 5.32 1.71 9.19 6.34 9.19 4.75 0 5.92-3.28 5.92-8.31v-11.53h11.32v10.5c0 11.53-4.62 20.09-17.76 20.09-13.49 0-18.29-8.26-18.29-21.2z" fill="#141919"/>
  <path d="m468.1 62.97h11.8v33.37h14.05v-33.38h10.8v77.75h-11.67v-33.29h-13.18v33.29h-11.8v-77.74z" fill="#141919"/>
  <path d="m525 73.81h-12.82v-10.38h37.58v10.38h-12.32v66.91h-12.44v-66.91z" fill="#141919"/>
  <path d="m549.9 128.1h11.39v12.58h-11.39v-12.58z" fill="#141919"/>
  <path d="m581.9 62.61h16.82l11.46 79.03h-11.67l-2.43-15.96v0.32h-13.01l-2.95 15.64h-11.04l12.82-79.03zm12.69 51.32-5.38-36.51h-0.26l-5.26 36.51h10.9z" fill="#141919"/>
  <path d="m614.9 62.97h12.76v77.75h-12.76v-77.75z" fill="#141919"/>
</svg>