<svg xmlns="http://www.w3.org/2000/svg" width="184" height="174" viewBox="0 0 184 174">
<!-- SVG created with Arrow, by QuiverAI (https://quiver.ai) -->
  <path d="m25 67.24c0.82-34.1 29.11-63.82 66-64.24v2.83c-33.89 0.41-60.99 28.24-61.02 61.09v4.94c0 28 23.7 58.33 60.17 58.33v5.23c-34.56 0-65.15-27.31-65.15-63.96v-4.22z" fill="#528A75"/>
  <path d="m92.48 3h-1.17v2.82h1.17c31.93 0 60.68 27.61 60.68 61.42v0.22h-14.72v4.46h20.07v-3.15c0-35.8-30.43-65.77-66.03-65.77z" fill="#BC9E5A"/>
  <path d="m25 67.11 19.47 0.07c0.86-16.95 10.09-32.87 30.69-42.1l0.88 4.77c-16.9 7.39-28.09 23.05-26.73 47.25l-4.47 0.76-0.36-5.88h-19.48v-4.87z" fill="#BC9E5A"/>
  <path d="m110.9 26.3-1.69 4.5c4.99 2.15 10.44 7.05 11.03 7.55l-10.56 9.62c-6.1-4.92-10.53-7.07-20.55-7.07h-0.03l-0.08 19.14c-0.98 0.33-1.89 0.83-2.74 1.47-3.9-3.9-6.86-8.52-6.86-15.18v-20.33c0-7.62 4.24-15.24 9.86-17.47v18.44h4.47c2.93 0 4.75 0.58 7.22 0.75l0.87-4.77-8.24-1.47v-15.57l0.03-2.91h-1.76c-10.96 0-16.78 11.24-16.78 21.74v21.89c0 7.28 3.63 13.61 8.43 18.72-0.89 1.66-1.2 3.43-0.96 5.33 0.5 3.92 2.63 6.92 6.46 8.1v12.96h-0.1c-10.88-1.13-20.49-10.16-20.49-21.83 0-7.02 2.63-12.26 7.09-16.04l-0.84-7.24c-7.86 6.12-11.07 14.43-11.07 22.98 0 6.9 2.51 13.06 6.01 17.59l-9.2 9.72 3.11 3.5 9.59-10.29c6.57 5.74 12.38 7.35 20.63 7.03v-18.25c0.97-0.29 1.89-0.84 2.74-1.6 3.8 3.22 7.01 7.98 7.33 14.8v20.54c0 9.54-7.69 17.54-15.08 17.54h0.59v4.85h0.76c15.44 0 30.89-12.09 32.79-29.54 11.12-10.52 15.9-22.24 15.9-35.38 0-16.91-10.09-34.71-27.88-43.82zm6.9 76.5c0 11-4.41 18.01-13.87 24.76 3.9-4.89 4.78-8.91 4.78-15.45v-19.7c0-7.52-3.01-14.1-8.69-19.52 1.3-2.84 0.96-6.54-0.84-8.97-1.69-2.45-3.73-3.41-5.58-4.06v-13.57c10.86 1.14 20.15 9.83 21.3 20.42h4.7c-0.2-5.77-2.87-10.7-6.37-14.51l10.77-10.55c7.32 8.31 10.64 16.93 10.64 26.66 0 13.13-6.91 26.36-16.84 34.49z" fill="#518B75"/>
  <path d="m114.7 72.32c-0.69 5.97-3.54 11.96-7.17 14.55l0.48 5.25c6.52-4.06 10.11-11.51 11.42-19.8h-4.73z" fill="#BC9E5A"/>
  <path d="m51.42 84.54-4.41 1.43c3.77 10.33 10.42 20.13 24.97 27.14l2-5c-8.87-4.3-17.64-11.62-22.56-23.57z" fill="#BC9E5A"/>
  <path d="m82.43 111.1-0.88 5.07 7.69 0.88v12.86l4.47 0.32v-18.77h-4.47c-2.68 0-3.82 0.12-6.81-0.36z" fill="#BC9E5A"/>
  <path d="m5.01 151h10.61c1.39 0 1.56-0.02 3.17-0.37l-0.36 5.09h-0.23c-0.22-2.39-1.05-3.2-3.1-3.22h-4.61v8.15h3.46c1.94 0 2.48-0.95 2.56-2.71h0.23l-0.47 7.25h-0.2c0.13-2.05-0.61-3.05-2.41-3.05h-3.17v7.76h4.35c2.94 0 4.26-1.5 5.16-4.49h0.19l-1.17 6.01h-14.35v-0.11c2-0.41 2.31-1.01 2.31-3.01v-14.17c0-1.82-0.66-2.72-1.97-2.92v-0.21z" fill="#001212"/>
  <path d="m23.71 150.5h0.58l14.9 14.35v-10.04c0-2.36-0.78-3.31-2.78-3.61v-0.21h7.5v0.21c-1.64 0.4-2.1 1.35-2.1 3.87v16.56h-0.28l-14.18-14.13v9.79c0 2.64 1.01 3.54 2.62 3.91v0.21h-7.95v-0.21c2.05-0.31 2.74-1.5 2.74-3.7v-17h-1.05z" fill="#001212"/>
  <path d="m45.05 150.3h0.26c0.45 0.47 1.35 0.69 2.38 0.69h13.22c0.86 0 1.92-0.09 2.57-0.69h0.23v5.68h-0.2c-0.5-2.55-1.28-3.45-3.54-3.45h-3.43v15.55c0 2 0.74 2.69 2.24 3.12v0.21h-8.91v-0.21c1.56-0.37 2.24-1.04 2.24-3.03v-15.64h-3.43c-1.85 0-2.97 0.81-3.6 3.45h-0.26l0.23-5.68z" fill="#001212"/>
  <path d="m65.17 151h10.6c1.39 0 1.57-0.02 3.18-0.37l-0.36 5.09h-0.23c-0.23-2.39-1.05-3.2-3.1-3.22h-4.61v8.15h3.46c1.94 0 2.49-0.95 2.56-2.71h0.23l-0.47 7.25h-0.2c0.13-2.05-0.61-3.05-2.4-3.05h-3.18v7.76h4.35c2.94 0 4.26-1.5 5.16-4.49h0.2l-1.17 6.01h-14.37v-0.11c2-0.41 2.31-1.01 2.31-3.01v-14.17c0-1.82-0.66-2.72-1.96-2.92v-0.21z" fill="#001212"/>
  <path d="m82.47 151h8.27v0.19c-1.36 0.2-2.22 0.96-2.22 2.8v15.77h4.58c2.91 0 4.5-2 4.78-4.7h0.2l-1.22 6.36h-14.39v-0.19c1.59-0.39 2.15-1.27 2.15-3.3v-13.93c0-1.79-0.71-2.55-2.15-2.81v-0.19z" fill="#001212"/>
  <path d="m99.3 151h10.61c1.38 0 1.56-0.02 3.17-0.37l-0.36 5.09h-0.23c-0.23-2.39-1.05-3.2-3.1-3.22h-3.88v8.15h3.01c1.94 0 2.48-0.95 2.56-2.71h0.23l-0.47 7.25h-0.2c0.13-2.05-0.61-3.05-2.41-3.05h-2.72v7.76h3.98c2.94 0 4.25-1.5 5.16-4.49h0.19l-1.17 6.01h-14.37v-0.11c1.44-0.41 1.8-1.01 1.8-3.01v-14.17c0-1.82-0.67-2.72-1.8-2.92v-0.21z" fill="#001212"/>
  <path d="m135.5 158.3h-0.21c-1.39-3.77-3.68-6.17-6.79-6.17-4.76 0-6.87 4.04-6.87 8.66 0 5.6 3.13 9.25 7.3 9.25 3.87 0 6.29-2.62 6.81-6.56h0.46l-0.34 5.46c-2 1.63-5.05 2.76-8.09 2.76-6.83 0-10.85-4.47-10.85-10.31 0-6.24 4.59-10.76 11.32-10.76 2.57 0 5.09 0.65 6.96 1.57l0.3 6.1z" fill="#001212"/>
  <path d="m138.5 151h8.03v0.21c-1.62 0.26-2.23 1.05-2.23 2.93v6.55h9.46v-6.64c0-1.6-0.69-2.64-2.22-2.84v-0.21h8.24v0.21c-1.47 0.3-2.13 1.15-2.13 3.06v13.94c0 1.91 0.66 2.6 2.15 3v0.21h-8.26v-0.21c1.66-0.37 2.22-1.12 2.22-3.03v-6.09h-9.46v6.22c0 1.72 0.71 2.53 2.28 2.9v0.21h-8.08v-0.21c1.47-0.34 2.13-1.2 2.13-3.05v-14.07c0-1.73-0.66-2.58-2.13-2.88v-0.21z" fill="#001212"/>
  <path d="m161.8 150.3h0.26c0.45 0.47 1.35 0.69 2.38 0.69h11.87c1.45 0 2.28-0.09 2.92-0.69h0.23v5.68h-0.2c-0.5-2.55-1.28-3.45-3.54-3.45h-3.17v15.55c0 2 0.74 2.69 2.24 3.12v0.21h-8.2v-0.21c1.42-0.43 2.08-1.04 2.08-3.05v-15.62h-3.17c-1.85 0-2.97 0.81-3.6 3.45h-0.26l0.16-5.68z" fill="#001212"/>
  <path d="m46.53 110.8 10.74-10.93 2.62 2.89-10.85 11.12-2.51-3.08z" fill="#518B75"/>
</svg>