<svg xmlns="http://www.w3.org/2000/svg" width="200" height="200" viewBox="0 0 200 200">
<!-- SVG created with Arrow, by QuiverAI (https://quiver.ai) -->
  <path d="m100.1 11.91h-92.19l-4.92 22.9h7.91v69.01l-7.91 47.7h47.06l8.96-22.48h-24.54v-37.6h36.02l9.28-23.11h-45.3v-33.52h57.27l8.36-22.9z" fill="#161C1D"/>
  <path d="m197.3 151.3-22.62-35.9h7.15l-11.05-20.5h-8.89l-50.85-83.08-33.13 83h22.08l14.35-34.83 55.97 91.31h26.99z" fill="#161C1D"/>
  <path d="m105.8 94.66-35.9 20.75-15.4 36.11h21.29l15.47-36.23h51.42l-12.87-20.62-24.01-0.01z" fill="#161C1D"/>
  <path d="m122.2 151.5-12.85-22.42h-19.08l-8.98 22.42h40.91z" fill="#161C1D"/>
  <path d="m16.62 184.7v3.13h-13.62v-18.81h13.23v3.03h-9.97v4.62h8.69v2.89h-8.69v5.14h10.36z" fill="#161C1D"/>
  <path d="m36.92 169v18.34h-2.79l-10.51-12.54v12.54h-3.67v-18.34h2.83l10.53 12.55v-12.55h3.61z" fill="#161C1D"/>
  <path d="m45.91 171.8h-6.19v-2.74h15.25v2.87h-5.7v15.72h-3.59l0.23-15.85z" fill="#161C1D"/>
  <path d="m72.06 184.8v2.87h-14.65v-18.63h14.1v2.82h-10.57v4.83h8.84v2.79h-8.84v5.24l11.12 0.08z" fill="#161C1D"/>
  <path d="m75.56 169h3.48v15.89h9.57v2.78h-13.05v-18.67z" fill="#161C1D"/>
  <path d="m105.3 184.8v2.78h-13.69v-18.64h13.31v2.83h-9.82v4.83h8.84v2.78h-8.84v5.24l10.2 0.18z" fill="#161C1D"/>
  <path d="m107.4 177.9c0-6.1 4.28-9.38 9.94-9.38 3.61 0 6.13 1.42 7.82 3.56l-2.29 2.1c-1.65-1.85-3.17-2.59-5.36-2.59-4.19 0-6.4 3.24-6.4 6.47 0 3.61 2.44 6.91 6.51 6.91 2.5 0 4.24-1.25 5.46-2.85l2.44 2.22c-1.79 2.45-4.58 3.6-7.9 3.6-6.18 0.03-10.22-3.97-10.22-10.04z" fill="#161C1D"/>
  <path d="m144.6 169v18.34h-3.35v-7.87h-9.76v8.12h-3.32v-18.63h3.48v7.63h9.64v-7.59h3.31z" fill="#161C1D"/>
  <path d="m153.1 171.8h-5.72v-2.74h15.75v2.87h-6.19v15.72h-3.51l-0.33-15.85z" fill="#161C1D"/>
  <path d="m186.1 183.6h-9.64l-1.99 4.04h-3.64l8.61-18.59h3.66l8.6 18.59h-3.63l-1.97-4.04zm-1.28-3-3.56-8.1-3.56 8.1h7.12z" fill="#161C1D"/>
  <path d="m194 169.4h3.67v18.34h-3.67v-18.34z" fill="#161C1D"/>
</svg>