<svg xmlns="http://www.w3.org/2000/svg" width="219" height="36" viewBox="0 0 219 36">
<!-- SVG created with Arrow, by QuiverAI (https://quiver.ai) -->
  <path d="m218.9 0h-218.8v35.88h218.8v-35.88z" fill="#1A1A1A"/>
  <path d="m23.05 30.19h-17.84v-0.51h0.62c1.32 0 2.25-0.91 2.25-2.31v-19.02c-0.06-1.27-1.06-2.19-2.29-2.19h-0.58v-0.53h9.41c1.5 0 2.64-0.34 3.1-0.5v4.2l-0.51-0.02v-0.67c0-1.16-0.88-2.08-2.04-2.13h-5.48v10.73h6.2c0.97 0 1.72-0.82 1.72-1.79v-0.55h0.5v5.66h-0.5v-0.56c0-0.95-0.73-1.75-1.68-1.79h-6.24v10.63h6.4c4.05 0 5.6-2.23 6.86-4.75l0.46 0.02-1.95 6.08h1.59z" fill="#B3955B"/>
  <path d="m53.25 5.63v0.51h-0.84c-1.22 0-2.24 0.95-2.3 2.24v17.47c0 2.23 0.35 4.4 0.35 4.4h-0.48l-19.26-20.15-0.02 17.18c0.04 1.28 1.06 2.39 2.37 2.39h0.85v0.51h-7.76v-0.51h0.84c1.32 0 2.34-1.05 2.38-2.38v-17.58c0-2.36-0.35-4.41-0.35-4.41l0.56 0.02 19.22 19.99-0.02-16.89c-0.05-1.29-1.07-2.28-2.33-2.28h-0.85v-0.51h7.64z" fill="#B3955B"/>
  <path d="m72.51 5.59c1.5 0 3-0.33 3.5-0.59v4.34l-0.51-0.02v-0.71c0-1.2-0.88-2.08-2.12-2.08h-6.68v20.89c0.07 1.28 1.11 2.25 2.37 2.25h0.54v0.51h-7.99v-0.51h0.54c1.27 0 2.35-1.01 2.39-2.3v-20.84h-6.69c-1.23 0-2.12 0.88-2.12 2.08v0.71l-0.51 0.02v-4.34c0.56 0.26 2.05 0.59 3.53 0.59h13.75z" fill="#B3955B"/>
  <path d="m94.82 30.19h-15.73v-0.51h0.62c1.04 0 1.87-1.07 1.87-2.31v-19.02c-0.06-1.27-1.06-2.19-2.29-2.19h-0.58v-0.53h9.41c1.5 0 3.16-0.34 3.74-0.5v4.2l-0.55-0.02v-0.67c0-1.16-0.88-2.08-2.04-2.13h-5.08v10.73h5.56c0.97 0 1.56-0.82 1.56-1.79v-0.55h0.48v5.66h-0.48v-0.56c0-0.95-0.64-1.75-1.59-1.79h-5.53v10.63h5.53c3.99 0 5.54-2.23 6.8-4.75l0.46 0.02-2.16 6.08z" fill="#B3955B"/>
  <path d="m116.2 24.13-1.96 6.06h-14.57v-0.51h0.54c1.32 0 2.25-1.08 2.29-2.33v-18.87c-0.02-1.32-1.1-2.34-2.42-2.34h-0.42v-0.51h7.94v0.51h-0.42c-1.32 0-2.4 1.03-2.42 2.34v20.33h5.53c3.99-0.03 5.38-2.18 6.43-4.72l-0.52 0.04z" fill="#B3955B"/>
  <path d="m135.1 30.19h-15.73v-0.51h0.62c1.04 0 1.87-1.07 1.87-2.31v-19.02c-0.06-1.27-1.06-2.19-2.29-2.19h-0.58v-0.53h10.74c1.5 0 3.16-0.34 3.74-0.5v4.2l-0.55-0.02v-0.67c0-1.16-0.88-2.08-2.04-2.13h-6.48v10.73h5.83c0.97 0 1.56-0.82 1.56-1.79v-0.55h0.48v5.66h-0.48v-0.56c0-0.95-0.64-1.75-1.59-1.79h-5.8v10.63h5.83c3.99 0 5.54-2.23 6.8-4.75l0.46 0.02-2.39 6.08z" fill="#B3955B"/>
  <path d="m162.7 19.78-0.35 6.15c-2.05 3.29-5.54 4.75-9.91 4.75-7.9-0.06-13.04-4.97-13.04-12.8 0-7.66 4.94-12.62 12.88-12.62 3.47 0 6.59 1.01 8.67 2.51l0.8 5.54h-0.43c-1.32-4.58-4.65-6.78-9.06-6.78-6.32 0-9.92 4.71-9.92 11.27 0 6.73 3.73 11.33 10.08 11.43 5.4-0.01 9.37-2.62 9.82-9.45h0.46z" fill="#B3955B"/>
  <path d="m182.9 30.19v-0.51h0.58c1.22 0 2.24-1.02 2.28-2.29v-9.01h-14.69v8.97c0.02 1.31 1.14 2.33 2.42 2.33h0.58v0.51h-7.83v-0.51h0.58c1.27 0 2.39-1.02 2.41-2.33v-18.86c-0.04-1.29-1.1-2.35-2.41-2.35h-0.58v-0.51h7.83v0.51h-0.58c-1.26 0-2.34 1.03-2.42 2.34v8.88h14.69v-8.86c-0.04-1.24-1.12-2.35-2.28-2.35h-0.58v-0.51h7.79v0.51h-0.58c-1.26 0-2.34 1.03-2.4 2.36v18.86c0.04 1.29 1.1 2.33 2.4 2.33h0.58v0.51h-7.79v-0.02z" fill="#B3955B"/>
  <path d="m210.8 5.59c1.5 0 3-0.33 3.5-0.59v4.34l-0.51-0.02v-0.71c0-1.2-0.88-2.08-2.12-2.08h-5.98v20.89c0.07 1.28 1.11 2.25 2.37 2.25h0.54v0.51h-7.99v-0.51h0.54c1.26 0 2.35-1.01 2.39-2.3v-20.84h-6.69c-1.23 0-2.12 0.88-2.12 2.08v0.71l-0.51 0.02v-4.34c0.56 0.26 2.05 0.59 3.53 0.59h13.05z" fill="#B3955B"/>
</svg>