<svg xmlns="http://www.w3.org/2000/svg" width="168" height="57" viewBox="0 0 168 57">
<!-- SVG created with Arrow, by QuiverAI (https://quiver.ai) -->
  <path d="m50.83 21.12h10.22v2.47h-7.38v3.66h6.67v2.22h-6.67v3.85h7.61v2.4h-10.45v-14.6z" fill="#101B1D"/>
  <path d="m64.08 21.12h2.37l7.01 9.41v-9.41h2.6v14.3h-2.32l-7.01-9.7v9.7h-2.65v-14.3z" fill="#101B1D"/>
  <path d="m82.08 23.43h-4.47v-2.31h11.38v2.31h-4.46v11.99h-2.45v-11.99z" fill="#101B1D"/>
  <path d="m90.29 21.12h10.05v2.3h-7.36v3.84h6.59v2.15h-6.59v3.71h7.53v2.3h-10.22v-14.3z" fill="#101B1D"/>
  <path d="m103.1 21.12h2.69v11.98h6.92v2.32h-9.61v-14.3z" fill="#101B1D"/>
  <path d="m114.4 21.12h10.05v2.3h-7.36v3.84h6.59v2.15h-6.59v3.71h7.53v2.3h-10.22v-14.3z" fill="#101B1D"/>
  <path d="m126.2 28.46v-0.04c0-4.44 3.14-7.51 7.12-7.51 2.59 0 4.32 1.25 5.56 2.73l-1.81 1.84c-1.21-1.25-2.3-2.09-4.03-2.09-2.84 0-4.33 2.55-4.33 4.97v0.05c0 2.55 1.64 4.93 4.33 4.93 1.73 0 2.81-0.92 3.99-2.24l1.81 1.74c-1.48 1.88-3.17 2.96-5.73 2.96-4.02 0-6.91-3.17-6.91-7.34z" fill="#101B1D"/>
  <path d="m140.4 21.12h2.69v6.04h7.02v-6.04h2.69v14.3h-2.69v-5.93h-7.02v5.93h-2.69v-14.3z" fill="#101B1D"/>
  <path d="m159.2 23.43h-4.46v-2.31h11.38v2.31h-4.46v11.99h-2.46v-11.99z" fill="#101B1D"/>
  <path d="m24.88 1.54-6.12 11.09h10.78l3.52 6.15h7.02l3.53-6.15-5.98-11.09h-12.75z" fill="#4D8571"/>
  <path d="m2.29 16.84 5.78 10.07 7.85-14.28-5.86-10.53-7.77 14.74z" fill="#4D8571"/>
  <path d="m25.21 22.36-3.53 5.95 3.53 6.3h7.62l3.05-6.3-3.05-5.95h-7.62z" fill="#4D8571"/>
  <path d="m2.09 40.08 7.95 14.91 5.97-10.67-8.22-15.06-5.7 10.82z" fill="#4D8571"/>
  <path d="m32.92 37.93-3.43 5.98h-10.77l6.36 11.55 12.43-0.05 6.1-11.09-3.32-6.39h-7.37z" fill="#4D8571"/>
  <path d="m11.01 1.54 6.1 9.91 6.2-9.91h-12.3z" fill="#4D8571"/>
  <path d="m9.18 27.75 11.78-0.01-6.53-10.58-5.25 10.59z" fill="#4D8571"/>
  <path d="m8.98 28.78 5.93 10.05 6.05-10.06-11.98 0.01z" fill="#4D8571"/>
  <path d="m11.14 55.46 12.23-0.04-6.29-10.05-5.94 10.09z" fill="#4D8571"/>
</svg>