<svg xmlns="http://www.w3.org/2000/svg" width="250" height="251" fill="none" viewBox="0 0 250 251">
<!-- SVG created with Arrow, by QuiverAI (https://quiver.ai) -->
  <path d="m249.2 0.81h-248.4v249.4h248.4v-249.4z" fill="#F0E9E1"/>
  <path d="m136.2 7.67c49.85 3.18 103.6 42.14 103.8 109.7-0.2 44.88-38.9 100.2-110 101.3 40.66-2.11 94.75-35.96 94.75-102.6 0-44.05-28.82-92.27-88.62-108.4z" fill="url(#paint0_linear_119_1859)"/>
  <path d="m7.4 108.3c5.51-51.4 46.43-99.77 102.9-99.77 47.58 0.55 85.09 37.91 85.09 81.29 0 33.75-25.18 69.46-64.19 69.46-22.86 0-40.78-15.18-41.1-41.58 3.1 17.36 15.24 31.03 36.51 31.03 28.04 0 52.37-28.67 52.37-56.4 0-32.05-26.31-70.88-75.17-70.88s-87.38 37.89-96.38 86.85z" fill="url(#paint1_linear_119_1859)"/>
  <path d="m8.61 135.5c0-42.26 34.52-89.72 85.4-89.72 39.47 0 62.35 31.68 62.35 57.05 0 9.94-4.6 19.91-11.45 28.17 4.22-6.3 6.56-12.18 6.56-20.87 0-23.93-22.38-48-56.26-48-38.13 0-72.12 33.45-72.12 78.62 0 35.67 26.12 89.52 91.75 103-60.45-3.06-106.2-50.46-106.2-108.3z" fill="url(#paint2_linear_119_1859)"/>
  <path d="m242.5 140.6c-7.82 49.43-47.28 100.7-105.3 100.7-50.45 0-88.94-43.28-88.91-85.18 0.02-31.18 23.42-72.26 61.14-72.26 7.57 0 12.94 2.21 18.33 4.66-2.89-0.83-5.32-1.31-9.26-1.31-31.75 0-52.6 31.77-52.6 63.45 0 36.21 31.16 76.05 79.77 76.05 49.27 0 91.07-42.65 96.81-86.08z" fill="url(#paint3_linear_119_1859)"/>
  <path d="m80.92 169.3h9.76v2.79h-6.39v2.96h5.87v2.54h-5.87v2.77h6.46v2.79h-9.83v-13.85z" fill="#000"/>
  <path d="m93.25 169.3h2.84l6.9 8.52v-8.52h3.15v13.48h-2.53l-7.15-8.97v8.97h-3.21v-13.48z" fill="#000"/>
  <path d="m110.9 171.9h-4.4v-2.59h12.24v2.59h-4.4v10.89h-3.44v-10.89z" fill="#000"/>
  <path d="m119.8 169.3h10.16v2.7h-6.89v2.95h6.1v2.55h-6.1v2.77h6.96v2.7h-10.23v-13.67z" fill="#000"/>
  <path d="m131.7 169.3h3.3v10.88h7.65v2.6h-10.95v-13.48z" fill="#000"/>
  <path d="m143.6 169.3h10.16v2.7h-6.89v2.95h6.41v2.55h-6.41v2.77h6.95v2.7h-10.22v-13.67z" fill="#000"/>
  <path d="m154.9 176v-0.04c0-4.24 3.11-7.32 7.49-7.32 2.79 0 4.56 1.18 5.88 2.9l-2.12 2.35c-1.1-1.2-2.21-2.1-3.86-2.1-2.53 0-4.15 2.04-4.15 4.45v0.05c0 2.45 1.74 4.54 4.15 4.54 1.7 0 2.74-0.84 3.9-2.09l2.19 1.98c-1.48 1.81-3.22 2.93-6.09 2.93-4.39 0-7.39-3.36-7.39-7.65z" fill="#000"/>
  <path d="m169.7 169.3h3.43v5.65h5.87v-5.65h3.43v13.48h-3.43v-5.03h-5.87v5.03h-3.43v-13.48z" fill="#000"/>
  <path d="m187.8 171.9h-4.24v-2.59h11.25v2.59h-4.24v10.89h-2.77v-10.89z" fill="#000"/>
  <defs>
    <linearGradient id="paint0_linear_119_1859" x1="153.3" x2="230" y1="7.667" y2="153.1" gradientUnits="userSpaceOnUse">
      <stop stop-color="#C9AC78" offset="0"/>
      <stop stop-color="#B39961" offset=".349"/>
      <stop stop-color="#A79660" offset="1"/>
    </linearGradient>
    <linearGradient id="paint1_linear_119_1859" x1="11.82" x2="186.1" y1="105" y2="44.42" gradientUnits="userSpaceOnUse">
      <stop stop-color="#3B7E71" offset="0"/>
      <stop stop-color="#6F9575" offset=".5781"/>
      <stop stop-color="#B99E66" offset="1"/>
    </linearGradient>
    <linearGradient id="paint2_linear_119_1859" x1="54.36" x2="54.36" y1="45.79" y2="243.8" gradientUnits="userSpaceOnUse">
      <stop stop-color="#938756" offset="0"/>
      <stop stop-color="#438677" offset=".4948"/>
      <stop stop-color="#57877A" offset=".9844"/>
    </linearGradient>
    <linearGradient id="paint3_linear_119_1859" x1="238" x2="59" y1="141" y2="217.5" gradientUnits="userSpaceOnUse">
      <stop stop-color="#C29A56" offset="0"/>
      <stop stop-color="#959370" offset=".4844"/>
      <stop stop-color="#4A8370" offset=".974"/>
    </linearGradient>
  </defs>
</svg>