<svg xmlns="http://www.w3.org/2000/svg" width="250" height="42" viewBox="0 0 250 42">
<!-- SVG created with Arrow, by QuiverAI (https://quiver.ai) -->
  <path d="m249.9 0.21h-249.8v41.6h249.8v-41.6z" fill="#1A1A1B"/>
  <path d="m244.4 7.04h-24.5l-0.79 6.34 0.87 0.14c2.47-3.78 3.9-4.66 7-4.66h2.19v19.57c0 3.28-0.26 4.32-1.77 6.44v0.15h9.44v-0.15c-1.36-2.08-1.61-3.16-1.61-6.41v-19.6h2.33c3.09 0 4.53 0.88 6.96 4.66l0.87-0.14-0.99-6.34zm-42.96 27.83c-1.37-2.08-1.69-3.31-1.69-6.41v-6.97h9.1v6.94c0 3.09-0.33 4.28-1.7 6.44v0.15h9.38v-0.15c-1.26-2.08-1.62-3.24-1.62-6.44v-14.69c0-3.31 0.4-4.33 1.62-6.41v-0.15h-9.38v0.15c1.37 2.12 1.7 3.25 1.7 6.5v5.5h-9.89v-5.55c0-3.35 0.39-4.33 1.61-6.45v-0.15h-11.44v0.15c1.63 2.12 1.96 3.18 1.96 6.45v14.61c0 3.24-0.33 4.4-1.96 6.48v0.15h9.38l-0.04-0.15h2.97zm-26.64 0.76c4.08 0 7.87-1.16 9.95-2.33l0.83-6.38-0.8-0.18c-2.69 4.41-5.12 6.75-9.13 6.75-6.1 0-8.65-5.92-8.65-12.59 0-6.89 3.18-12.18 8.17-12.18 3.86 0 6.7 2.8 8.75 6.93l1.01-0.19-0.04-6.55c-2.15-1.13-5.57-2.3-9.24-2.3-8.97 0-15.29 6.2-15.29 14.55-0.01 7.6 5.18 14.47 14.44 14.47zm-18.06-7.49c-1.97 3.93-4.26 4.91-8.34 4.91h-4.59v-11.74h3.17c3.02 0 4.49 0.77 5.83 3.39h0.71v-8.62h-0.71c-1.52 2.69-2.93 3.25-5.83 3.25h-3.17v-10.43h4.16c4.01 0 5.7 1.24 7.78 4.63l0.72-0.19-0.68-6.34h-20.45v0.15c1.39 2.12 1.75 3.28 1.75 6.56v14.79c0 3.21-0.4 4.33-1.75 6.38v0.15h21.36l0.95-6.6-0.91-0.29zm-44.39 6.88h20.23l1.26-7.45-0.72-0.22c-2.54 4.43-4.4 5.66-7.5 5.66h-5.53v-19.88c0-3.09 0.39-4.15 1.62-6.02v-0.15h-9.38v0.15c1.36 2.08 1.69 3.14 1.69 6.34v15.12c0 3.17-0.37 4.26-1.69 6.3l0.02 0.15zm-4.41-6.88c-1.97 3.93-4.26 4.91-8.34 4.91h-4.01v-11.74h2.68c3.03 0 4.5 0.77 5.84 3.39h0.71v-8.62h-0.71c-1.52 2.69-2.93 3.25-5.84 3.25h-2.68v-10.43h3.57c4.01 0 5.7 1.24 7.78 4.63l0.72-0.19-0.32-6.34h-19.68v0.15c1.12 2.12 1.48 3.28 1.48 6.56v14.79c0 3.21-0.4 4.33-1.75 6.38v0.15h20.34l0.95-6.6-0.74-0.29zm-23.96-21.1h-23.84l-1.16 6.41 0.71 0.19c2.4-3.82 3.8-4.76 6.9-4.76h2.18v19.57c0 3.28-0.26 4.32-1.77 6.44v0.14h9.94v-0.14c-1.36-2.08-1.61-3.16-1.61-6.41v-19.62h1.83c3.1 0 4.53 0.88 6.96 4.66l0.87-0.14-1.01-6.34zm-30.57 28.28h1.08v-21.57c0-3.54 0.43-4.63 2.45-6.56v-0.15h-6.6v0.15c2.04 1.93 2.51 3.02 2.51 6.56v12.5h-0.43l-14.53-19.21h-8.97v0.15c1.83 1.67 2.42 2.69 2.42 6.08v14.65c0 3.35-0.59 4.84-2.42 6.96v0.15h7.22v-0.15c-2.21-2.16-2.79-3.52-2.79-6.95l-0.04-14.7h0.36l17.57 22.02c0.65 0.07 1.69 0.07 2.17 0.07zm-28.54-7.18c-1.96 3.93-4.26 4.91-8.34 4.91h-4.09v-11.74h3.18c3.02 0 4.49 0.77 5.83 3.39h0.71v-8.62h-0.71c-1.52 2.69-2.93 3.25-5.83 3.25h-3.18v-10.43h4.17c4 0 5.7 1.24 7.78 4.63l0.72-0.19-0.4-6.34h-19.5v0.15c1.09 2.12 1.46 3.28 1.46 6.56v14.79c0 3.21-0.4 4.33-1.76 6.38v0.15h20.34l0.95-6.6-1.33-0.29z" fill="#B39759"/>
</svg>