<svg xmlns="http://www.w3.org/2000/svg" width="250" height="83" viewBox="0 0 250 83">
<!-- SVG created with Arrow, by QuiverAI (https://quiver.ai) -->
  <path d="m249.5 0h-249.2v83h249.2v-83z" fill="#F1EDE2"/>
  <path d="m3.48 34.43c1.94-0.35 2.38-1.35 2.38-4.9v-19.81c0-3.58-0.48-4.49-2.38-4.88v-0.87h19.98l0.31 6.88-0.79 0.18c-1.04-4.71-2.94-6.02-6.07-6.02h-6.08v13.71h4.71c3.13 0 3.84-1.17 4.37-3.97h0.82v9.13h-0.82c-0.62-3.27-1.71-4.13-4.37-4.13h-4.71v13.84h6.77c3.93 0 5.71-1.69 7.31-6.72l0.75 0.23-1.21 7.81h-20.97v-0.48z" fill="#AB8A49"/>
  <path d="m32.96 8.71 0.09 19.2c0 4.28 1 5.74 3.56 6.52v0.48h-9.22v-0.48c2.42-0.78 3.41-1.77 3.54-6.3l0.31-17.41c-0.09-3.23-1.13-4.76-3.41-5.8v-0.95h8.45l16.01 22.86-0.09-14.89c-0.04-4.62-1.13-6.28-3.59-7.1v-0.87h8.4v0.87c-2.46 0.82-3.32 2.52-3.37 6.55l-0.18 24.15-1.52 0.09-18.98-26.92z" fill="#AB8A49"/>
  <path d="m84.62 11.11-0.78-6.91h-23.8l-0.78 6.89 0.81 0.18c1.36-4.38 3.3-6.35 7.02-6.35h2.04v23.92c0 3.92-0.54 4.98-2.87 5.55v0.52h10.68v-0.52c-2.33-0.53-2.82-1.63-2.82-5.55v-23.92h2.23c3.71 0 5.7 1.97 7.07 6.39l1.2-0.2z" fill="#AB8A49"/>
  <path d="m87.15 34.43c1.94-0.35 2.38-1.35 2.38-4.9v-19.81c0-3.58-0.48-4.49-2.38-4.88v-0.87h20.66l0.8 6.88-0.79 0.18c-1.04-4.71-2.94-6.02-6.07-6.02h-6.86v13.71h4.71c3.13 0 3.84-1.17 4.37-3.97h0.82v8.51h-0.82c-0.62-2.9-1.71-3.51-4.37-3.51h-4.71v13.98h7.2c3.71 0 5.48-1.83 7.09-6.86l0.75 0.23-1.21 7.81h-21.57v-0.48z" fill="#AB8A49"/>
  <path d="m112.4 34.41c1.88-0.4 2.53-1.2 2.53-4.93v-19.76c0-3.58-0.52-4.49-2.53-4.88v-0.87h9.8v0.87c-1.89 0.39-2.55 1.17-2.55 4.88v23.93h6.16c4.14 0 6.09-1.99 7.51-6.7l0.95 0.15-1.31 7.81h-20.56v-0.5z" fill="#AB8A49"/>
  <path d="m135.7 34.43c1.94-0.35 2.38-1.35 2.38-4.9v-19.81c0-3.58-0.48-4.49-2.38-4.88v-0.87h21.2l0.8 6.88-0.79 0.18c-1.04-4.71-2.94-6.02-6.07-6.02h-6.4v13.71h4.71c3.13 0 3.84-1.17 4.37-3.97h0.82v8.51h-0.82c-0.62-2.9-1.71-3.51-4.37-3.51h-4.71v13.89h6.86c3.93 0 5.7-1.74 7.31-6.77l0.75 0.23-1.21 7.81h-22.45v-0.48z" fill="#AB8A49"/>
  <path d="m161.4 20.38c0-9.79 6.44-16.81 14.82-16.81 3.6 0 7.09 0.99 9.78 2.26l0.35 7.58-0.75 0.28c-2.15-5.6-5.08-8.99-9.6-8.99-5.96 0-9.2 6.15-9.2 13.96 0 8.7 5.31 14.43 11.55 14.43 3.45 0 6.67-1.4 8.95-4.78l0.61 0.48c-2.42 4.47-6.57 6.93-11.97 6.93-8.4 0-14.54-5.96-14.54-15.34z" fill="#AB8A49"/>
  <path d="m218.4 4.84c-1.82 0.39-2.53 1.3-2.53 4.88v19.39c0 3.51 0.75 4.67 2.53 5.06v0.74h-9.67v-0.74c1.85-0.39 2.51-1.55 2.51-5.06v-9.4h-13.71v9.22c0 3.71 0.79 4.85 2.6 5.24v0.74h-10.03v-0.74c1.95-0.39 2.7-1.55 2.7-5.06v-19.39c0-3.53-0.66-4.49-2.7-4.88v-0.87h9.99v0.87c-1.9 0.44-2.56 1.35-2.56 4.88v8.95h13.71v-8.95c0-3.49-0.75-4.49-2.6-4.88v-0.87h9.76v0.87z" fill="#AB8A49"/>
  <path d="m247 11.11-0.78-6.91h-23.8l-0.78 6.89 0.82 0.18c1.36-4.38 3.3-6.35 7.01-6.35h2.04v24.38c0 3.51-0.66 4.48-2.75 5.09v0.52h10.55v-0.52c-2.19-0.61-2.81-1.58-2.81-5.09v-24.38h2.24c3.71 0 5.7 1.97 7.06 6.39l1.2-0.2z" fill="#AB8A49"/>
  <path d="m99.12 76.72c0-2.75 1.76-3.53 3.46-3.53 2.08 0 3.39 1.27 3.39 3.27 0 2.61-1.82 3.47-3.43 3.47-2.13 0-3.42-1.31-3.42-3.21z" fill="#AB8A49"/>
  <path d="m138.3 78.94v0.48h-11.94v-0.7c1.82-0.44 2.52-1.56 1.52-4.43l-2.24-6.39h-9.38l-1.27 3.87c-1.4 4.53-1.22 6.05 1.24 6.96v0.7h-7.99v-0.7c2.23-0.58 3.8-2.45 5.45-7.08l8.39-24.7h2.09l9.39 26.75c1.27 3.59 2.26 4.63 4.74 5.24zm-13.09-12.17-4.24-12.8-4.29 12.8h8.53z" fill="#AB8A49"/>
  <path d="m140.1 78.78c1.91-0.39 2.57-1.39 2.57-5.24v-20.02c0-3.86-0.66-4.7-2.57-5.1v-0.64h10.09v0.66c-1.86 0.39-2.77 1.14-2.77 5.07v20.02c0 3.93 0.91 4.84 2.77 5.24v0.64h-10.09v-0.63z" fill="#AB8A49"/>
</svg>