<svg xmlns="http://www.w3.org/2000/svg" width="414" height="137" fill="none" viewBox="0 0 414 137">
<!-- SVG created with Arrow, by QuiverAI (https://quiver.ai) -->
  <path d="m413.4 0h-413.1v136.8h413.1v-136.8z" fill="#F0E9DF"/>
  <path d="m146.5 52.84h22.45v4.16h-17.99v9.41h15.45v4.1h-15.45v9.07h18.37v4.15h-22.83v-30.89z" fill="#141614"/>
  <path d="m175.6 52.67 21.28 23.45v-23.45h4.33v30.98h-3.78l-18.53-23.68v23.36h-4.3v-30.66h1z" fill="#141614"/>
  <path d="m230 52.84v4.09h-10.98v26.69h-4.46v-26.69h-10.22v-4.09h25.66z" fill="#141614"/>
  <path d="m235.7 52.84h21.25v4.16h-17.09v9.41h14.53v4.1h-14.53v9.07h17.16v4.15h-21.32v-30.89z" fill="#141614"/>
  <path d="m263.7 52.67h4.34v26.84h16.45v4.11h-20.79v-30.95z" fill="#141614"/>
  <path d="m289.3 52.84h20.44v4.16h-16.28v9.41h15.05v4.1h-15.05v9.07h16.99v4.15h-21.15v-30.89z" fill="#141614"/>
  <path d="m338.7 59.46c-2.35-2.5-4.88-3.15-7.97-3.15-7.93 0-10.81 6.98-10.81 11.78 0 5.68 3.33 11.71 11.26 11.71 4.04 0 6.75-1.36 8.72-3.65l3.13 3.07c-3.23 3.49-6.53 4.89-11.92 4.89-10.17 0-15.71-8.06-15.71-15.63 0-8.13 6.08-16.09 15.36-16.09 5.36 0 9.07 1.9 11.95 5.17l-4.01 1.9z" fill="#141614"/>
  <path d="m348.6 52.67h4.36v14.17h18.13v-14.17h4.37v30.81h-4.37v-13.6h-18.13v13.6h-4.36v-30.81z" fill="#141614"/>
  <path d="m404.9 52.84v4.09h-9.99v26.69h-4.23v-26.69h-9.85v-4.09h24.07z" fill="#141614"/>
  <path d="m122 96.13c-10.95 16.82-27.88 30.56-52.61 30.89-32.47 0.44-59.76-24.94-59.62-56.96 0.13-30.89 22.2-60.46 55.2-60.85 28.6-0.35 49.75 21.88 49.81 47.41 0.06 21.24-17.97 41.47-39.34 41.47-16.24 0-33.31-11.73-33.31-30.48 0-13.8 10.78-24.57 24.07-24.84 11.38-0.24 18.44 7.93 18.35 16.86-0.07 7.88-6.28 12.43-9.22 12.66 3.81-3.08 4.9-6.33 4.87-9.51-0.1-8.2-6.41-12.19-11.49-11.95-9.31 0.45-15.09 9.01-15.09 15.77 0 9.25 8.85 17.71 19.86 17.54 14.73-0.25 24.21-12.18 24.21-25.36 0-15.77-13.46-30.37-32.27-30.37-22.94 0-41.04 19.04-41.04 41.65 0 25.07 21.68 48.69 51.36 48.49 22.56-0.14 33.6-9.72 46.82-23.42l-0.56 1z" fill="url(#paint0_linear_2254_21196)"/>
  <defs>
    <linearGradient id="paint0_linear_2254_21196" x1="13.19" x2="111.1" y1="110.2" y2="27.14" gradientUnits="userSpaceOnUse">
      <stop stop-color="#45897A" offset="0"/>
      <stop stop-color="#C9A75D" offset="1"/>
    </linearGradient>
  </defs>
</svg>