<svg xmlns="http://www.w3.org/2000/svg" width="250" height="250" viewBox="0 0 250 250">
<!-- SVG created with Arrow, by QuiverAI (https://quiver.ai) -->
  <path d="m149.4 30c-26.07 0-59.18 15.27-63.79 44.03-2.04 12.22 1.48 20.59 7.91 26.4-11.38 8.26-21.82 20.48-21.75 34.64 0.06 13.71 9.62 25.8 25.77 25.8 5.66 0 9.95-1.53 12.94-2.65 5.72 4.97 12.98 6.71 20.35 6.43 15.95-0.61 33.95-8.66 43.11-19.19 3.54-4.09 4.35-9.67 1.94-14.59-2.37-4.66-6.25-6.98-11.88-6.36-7.38 0.82-15.17 7.59-26.05 15.51-8.84 6.75-16.82 11.95-26.4 13.95-7.25-6.49-10.3-16.86-9.35-27.71 0.59-6.47 2.71-11.97 4.78-17.37 5.2 1.45 10.91 2.08 16.48 1.84 12.48-0.52 25.16-5.77 25.16-15.02 0-6.94-6.09-10.91-13.87-10.91-13.14 0-26.84 4.38-37.66 12.14-4.94-4.41-8.82-10.8-7.05-18.16 3.06-11.47 16.87-17.47 42.39-18.56 12.8-0.54 35.9-3.03 36.53-15.91 0.55-9.49-6.83-14.31-18.04-14.31h-1.52zm-0.68 3.97c10.08 0 15.94 3.23 15.94 9.72 0 8.92-12.92 12.08-32.13 12.8-17 0.62-32.3 1.49-40.83 9.94 7.38-18.02 30.23-32.46 57.02-32.46zm-14.18 54.8c7 0 10.03 3.29 10.03 6.94 0 6.31-8.23 10.55-20.66 10.55-5.81 0-11.47-0.99-15.02-2.25 5.99-9.02 16.05-15.24 25.65-15.24zm-20.53 4.14c-3.77 3.07-6.28 6.17-8.38 9.24-1.99-0.77-3.98-1.86-5.68-3.04 4.5-2.92 9.14-4.66 14.06-6.2zm-17.73 10.03c2.48 1.77 4.46 2.77 6.84 3.79-3.98 7.29-5.68 14.52-5.44 23.1 0.23 8.73 3.19 18.53 9.81 25.38-3.06 1.1-4.93 1.51-9.06 1.51-12.81 0-22.58-9.31-22.58-21.84 0-11.74 9.33-24.83 20.43-31.94zm69.33 25.33c5.17-0.54 7.29 3.67 7.6 7.06 0.42 4.46-2.68 8.65-8.48 13.11-10.16 7.8-21.89 12.22-34.01 12.22-7.09 0-12.42-1.74-15.1-3.76 9.81-4.24 18.15-10.99 27.4-17.22 8.23-5.74 15.81-10.87 22.59-11.41z" fill="#4A8571"/>
  <path d="m4 191v27.64h18.94v-3.96h-15.23v-8.75h12.77v-3.22h-12.77v-8.1h14.45v-3.61h-18.16z" fill="#4A8571"/>
  <path d="m29.64 191v27.64h4.65v-20.33l16.68 20.33h3.44v-27.64h-4.48v20.3l-16.32-20.3h-3.97z" fill="#4A8571"/>
  <path d="m59.82 191v3.61h8.37v24.03h4.48v-24.03h10.19v-3.61h-23.04z" fill="#4A8571"/>
  <path d="m87.69 191v27.64h20.2v-3.83h-16.06v-8.88h13.27v-3.22h-13.27v-8.1h14.85v-3.61h-18.99z" fill="#4A8571"/>
  <path d="m114.5 190.7v27.64h18.57v-3.83h-14.33v-23.81h-4.24z" fill="#4A8571"/>
  <path d="m137.9 191v27.64h20.83v-3.83h-16.25v-8.88h13.38v-3.22h-13.38v-8.1h15.45v-3.61h-20.03z" fill="#4A8571"/>
  <path d="m177.7 219c5.86 0 9.22-2.69 10.24-5.44l-3.14-2.6c-1.9 3.07-4.65 4.26-7.68 4.26-6.52 0-9.93-5.61-9.93-10.46 0-5.87 4.37-9.98 9.93-9.98 3.34 0 6.08 1.46 8.07 4.06l3-2.93c-2.74-3.35-5.64-4.91-10.8-4.91-8.79 0-13.92 6.71-13.92 13.71 0 8.1 6.09 14.29 14.23 14.29z" fill="#4A8571"/>
  <path d="m193.9 191v27.64h4.48v-12.71h15.09v12.71h4.23v-27.64h-4.23v11.71h-15.09v-11.71h-4.48z" fill="#4A8571"/>
  <path d="m223.2 191v3.61h10.18v24.03h4.26v-24.03h9.12v-3.61h-23.56z" fill="#4A8571"/>
</svg>