<svg xmlns="http://www.w3.org/2000/svg" width="202" height="162" viewBox="0 0 202 162">
<!-- SVG created with Arrow, by QuiverAI (https://quiver.ai) -->
  <path d="m5.59 155.9v-7.11h10.3v-2.72h-10.3v-6.42h11.93v-2.66h-14.71v21.7h15.07v-2.79h-12.29z" fill="#4D8876"/>
  <path d="m40.43 137v16.76l-13.61-16.76h-2.64v21.7h3.15v-16.46l13.51 16.46h2.71v-21.7h-3.12z" fill="#4D8876"/>
  <path d="m48.29 137v2.66h7.02v19.04h3.15v-19.04h8.09v-2.66h-18.26z" fill="#4D8876"/>
  <path d="m73.98 155.9v-7.11h11.11v-2.72h-11.11v-6.42h12.47v-2.66h-15.24v21.7h15.87v-2.79h-13.1z" fill="#4D8876"/>
  <path d="m92.62 137v21.7h14.99v-2.83h-11.8v-18.87h-3.19z" fill="#4D8876"/>
  <path d="m115.5 155.9v-7.11h10.96v-2.72h-10.96v-6.42h12.47v-2.66h-15.72v21.7h16.3v-2.79h-13.05z" fill="#4D8876"/>
  <path d="m143.8 159.1c4.34 0 6.87-1.88 8.16-3.8l-1.88-2.24c-1.55 2.34-3.85 3.24-6.28 3.24-5.68 0-8.24-4.2-8.24-8.41 0-4.33 2.75-8.33 8.21-8.33 2.59 0 4.83 1.07 6.51 3.24l1.82-2.33c-1.92-2.3-4.52-3.47-8.33-3.47-7.28 0-11.01 5.57-11.01 10.9 0 5.7 3.6 11.2 11.04 11.2z" fill="#4D8876"/>
  <path d="m173.3 137v9.42h-12.68v-9.42h-3.03v21.7h3.03v-9.63h12.68v9.63h3.15v-21.7h-3.15z" fill="#4D8876"/>
  <path d="m181.1 137v2.66h7.8v19.04h2.92v-19.04h7.63v-2.66h-18.35z" fill="#4D8876"/>
  <path d="m101.9 32.26c-18.33 0-31.77-4.67-41.9-15.47-0.73-0.78-2.85-1.73-2.76-1.47-0.51-1.18 0.39-2.23 1.51-2.18 0.83 0.04 1.35 0.97 1.92 1.55 7.29 7.4 16.57 11.28 28.57 13.09 6.99-10.6 24.16-24.39 42.04-24.49 9.12-0.06 12.93 5.13 12.87 10.08-0.13 8.82-14.45 18.89-42.25 18.89zm-9.02-4.03c2.4 0.28 5.6 0.42 8.19 0.38 20.8-0.4 39.53-8.15 39.59-15.55 0.04-4.03-2.85-6.97-9.11-6.97-14.38 0-31.26 11.7-38.67 22.14z" fill="#4D8876"/>
  <path d="m108 66.03c-7.9 0-14.98-2.1-20.04-8.49-6.31-7.47-5.1-16.36-1.82-23.57 0.77-1.8 3.87-0.21 2.49 1.68-3.01 6.76-2.93 13.37 1.13 19.13 6.17-2.72 13.19-4.66 20.06-4.66 8.16 0 12.82 2.65 12.82 7.45 0 5.79-6.92 8.46-14.64 8.46zm-15.8-9.1c4.83 4.51 10.34 5.54 16.13 5.34 4.74-0.17 11.04-2.11 11.04-5.4 0-3.2-3.91-4.26-9.69-4.26-5.74 0-11.54 1.87-17.48 4.32z" fill="#4D8876"/>
  <path d="m76.19 111.6c-11.44 0-17.73-8.76-17.53-18.85 0.33-15.61 13.73-29.48 29.46-36.92 0.86-0.41 1.76-0.13 2.19 0.68 0.44 0.83-0.13 1.89-0.96 2.32-13.93 6.49-27.23 19.05-27.82 33.19-0.55 12.3 7.33 16.73 14.2 16.66 11.98-0.13 19.73-5.67 33.31-15.72 9.74-7.26 16.72-12.51 24.38-14.16 7.35-1.22 10.07 3.96 10.07 7.53 0.14 9.52-17.31 25.97-39.08 26.45-6.49 0.14-11.12-1.48-14.59-3.68-4.21 1.62-8.7 2.5-13.63 2.5zm17.04-4.2c3.6 1.75 6.96 2.36 11.42 2.25 16.07-0.43 35.86-14.46 35.58-23.35-0.1-3.07-2.46-5.07-6.37-4.46-6.81 1.19-21 13.66-28.72 18.91-4.52 3.12-8.29 5.36-11.91 6.65z" fill="#4D8876"/>
  <path d="m89.65 71.6c-6.07 6.25-7.82 11.69-7.62 17.93 0.27 6.95 4.08 12.33 8.63 15.83 1.18 0.94-0.33 3.52-2.01 2.36-5.94-4.38-10.26-10.46-10.13-18.73 0.1-7.02 2.9-13.22 8.64-18.99 1.75-1.85 3.95-0.17 2.49 1.6z" fill="#4D8876"/>
</svg>