<svg xmlns="http://www.w3.org/2000/svg" width="250" height="250" viewBox="0 0 250 250">
<!-- SVG created with Arrow, by QuiverAI (https://quiver.ai) -->
  <path d="m249.8 0.31h-249.7v249.3h249.7v-249.3z" fill="#F3EDD1"/>
  <path d="m124.6 6.58c-64.88 0-117.8 52.98-117.8 118.5 0 62.22 51.14 118.4 116.7 118.4 64.48 0 120-53.38 120-119 0-63.17-50.09-117.9-118.8-117.9zm-110.9 102.5c5.51-47.6 47.19-88.34 94.33-95.67l0.3 0.45c-21.27 9.22-43.14 26.4-53.27 50.03-16.04 19.19-23.72 37.8-23.72 60.98 0 18.87 6.08 38.2 17.34 54.31-19.66-15.03-34.91-35.57-34.98-70.1zm0.15 32.58c10.08 24.11 26.98 44.04 51.87 55.89 16.48 10.3 31.4 19.92 60.44 19.92 20.26 0 36.81-6.98 50.73-16.08-17.2 21.04-35.95 33.56-70.72 33.69-46.58-5.24-84.83-40.78-92.32-93.42zm127.4 93.38v-0.53c23.13-7.91 43.29-25.7 55.41-50.61 13.18-15.83 19.93-36.27 19.93-58.68 0-19.27-5.7-37.98-16.36-54.54 19.76 15.16 35.44 39.23 35.44 68.07-4.93 47.47-43.8 88.65-94.42 96.29zm43.15-183.9c-17.41-13.11-35.61-19.86-60.1-19.86-21.61 0-38.51 6.09-52.38 16.48 16.18-19.39 37.75-33.54 68.04-33.81 44.31 2.97 89.91 41.99 96.23 93.13-10.23-23.18-28.4-44.48-51.79-55.94z" fill="#283539"/>
  <path d="m147.5 121.4c-12.09-9.09-33.52-8.99-33.52-22.19 0-7 5.39-10.44 12.66-10.44 11.19 0 20.15 5.46 28.3 16.68l22.61-21.92c-11.83-16.15-29.13-26.63-53.29-26.63-36.06 0-64.21 28.9-65.98 64.3h-20.67c0.34-40.26 35.72-83.24 86.82-83.24 48.59 0 86.35 39.05 86.35 87.15 0 45.73-37.23 85.15-86.42 85.15-46.64 0-86.15-35.91-86.52-82.41h25.08l0.17-3.64c0.27-23 10.54-41.41 32.21-53.44-7.67 8.6-9.84 15.8-9.84 26.34 0 16.86 11.16 31.01 33.73 37.54 11.89 3.68 15.99 6.81 15.99 14.99 0 6.46-6.51 10.94-16.2 10.22-10.79-0.86-17.93-6.18-24.44-16.01l-18.4 18.43c-6.01-7.57-9.92-15.65-10.72-24.52l-6.07 1.73c6.97 27.41 30.09 52.52 64.41 52.72 36.16 0 67.81-32.02 67.81-68.46v-2.35h-44.07zm6.42 56.76c8.15-10.17 10.99-17.47 10.52-27.99-0.6-8.74-3.71-15.45-9.01-22.29h30.21c-1.32 21.79-12.78 39.81-31.72 50.28zm-30.66 7.4c-17.33 0-32.22-7.17-42.14-18.06l12.85-13.48c7.65 8.5 17.54 13.35 29.1 13.35 12.45 0 19.19-8.5 19.19-16.61 0-11.69-9.43-16.67-20.99-20.24-19.05-5.85-29.2-15.36-29.2-32.55 0-19.13 15.12-34.72 34.1-34.78 17.4 0 31.78 7.74 42.58 19.84l-13.15 13.35c-9.2-8.7-17.08-13.15-29.27-13.15-12.12 0-19.16 6.63-19.16 16.04 0 12 9.76 16.65 22.05 20.87 17.13 6.12 28.7 15.27 28.7 31.89 0 17.52-15.69 33.53-34.66 33.53z" fill="#283539"/>
</svg>