<svg xmlns="http://www.w3.org/2000/svg" width="250" height="250" viewBox="0 0 250 250">
<!-- SVG created with Arrow, by QuiverAI (https://quiver.ai) -->
  <path d="m21.63 109 0.28 4.63-0.37-0.12c-1.59-2.78-4.6-3.34-8.57-3.34h-4.83v10.54c0 3.16-0.8 3.34-3.97 6.37l-0.26 0.29v-13.02c0-2.66-0.09-4.42-0.91-5.36h18.01l0.62 0.01zm1.35 26.81 0.34-0.38-1.13 5.07h-19.1v-0.09c0.87-1.54 0.96-2.68 0.96-4.76v-4.19c0-5.59 3.63-8.5 7.87-8.5h2.18c2.31 0 4.24-0.18 4.84-1.45h0.09v4.63h-0.09c-1.16-1.26-2.93-1.43-5.3-1.43h-1.58c-3.29 0-4.15 1.82-4.15 5.62v8.45h6.31c4.53 0 6.54-0.51 8.76-2.97z" fill="#B69853"/>
  <path d="m52.41 109h3.23v0.08c-0.82 1.54-1.28 3.25-1.28 6.65v25.13h-1.11l-21.71-26.59v19.51c0 3.14 0.37 4.81 1.01 6.56v0.08h-4.54v-0.08c0.87-1.55 1.33-3.24 1.33-6.61v-20.68c-1-1.63-2.06-2.91-3.38-3.96v-0.09h6.09l20.36 24.96v-18.23c0-3.27-0.37-4.97-1.14-6.64v-0.09h1.14z" fill="#B69853"/>
  <path d="m84.93 113.4-0.37-0.17c-1.77-2.38-3.87-3.03-7.69-3.03h-3.41v24.04c0 3.05 0.28 4.55 1.14 6.12v0.08h-6.61v-0.08c0.87-1.55 1.24-3.2 1.24-6.2v-23.96h-2.97c-3.82 0-5.92 0.65-7.69 3.03l-0.37 0.17 1.11-4.38h24.51l1.11 4.38z" fill="#B69853"/>
  <path d="m107.6 109 0.68 4.63-0.37-0.12c-1.59-2.78-4.6-3.34-8.56-3.34h-5.59v10.71c0 3.04-0.97 3.37-3.97 6.17l-0.29 0.32v-13.02c0-2.66-0.05-4.42-0.91-5.36h18.99l0.02 0.01zm1.57 26.54-0.48 4.96h-20.24v-0.09c0.82-1.5 0.87-2.86 0.87-4.94v-3.63c0-5.74 3.52-8.72 8.18-8.72h2.07c2.31 0 4.24-0.24 4.84-1.38h0.38v4.44h-0.38c-1.16-1.26-2.88-1.31-5.25-1.31h-1.09c-3.38 0-4.41 1.54-4.41 5.65v8.3h6.63c4.53 0 6.59-0.97 8.68-3.28h0.2z" fill="#B69853"/>
  <path d="m113.4 140.4v-0.08c0.72-1.55 1.14-3.15 1.14-6.12v-18.97c0-3.1-0.28-4.59-1.1-6.17v-0.08h6.31v0.08c-0.86 1.54-1.14 3.03-1.14 6.11v23.52h6.25c4.28 0 6.2-0.93 8.07-3.47l0.42 0.13-1.16 5.05h-18.79z" fill="#B69853"/>
  <path d="m155.8 109 0.29 4.63-0.37-0.12c-1.59-2.78-4.6-3.34-8.57-3.34h-5.08v10.64c0 2.99-0.88 3.32-3.87 6.24l-1 0.83v-13.53c0-2.66-0.04-4.42-0.86-5.36h18.84l0.62 0.01zm1.83 26.5-0.87 4.9h-20.56v-0.08c0.87-1.49 0.91-3.05 0.91-5.13v-4.04c0-5.38 3.38-8.24 8.04-8.24h2.06c2.31 0 4.23-0.24 4.83-1.38h0.38v4.57h-0.38c-1.16-1.26-2.92-1.44-5.29-1.44h-1.05c-3.29 0-4.15 1.69-4.15 5.61v8.38h6.24c4.73 0 7.5-0.98 9.6-3.15h0.24z" fill="#B69853"/>
  <path d="m175.7 141.2c-9.87 0-16.23-7.22-16.23-16.22 0-9.28 6.85-16.34 16.32-16.34 4.92 0 9.04 1.47 11.04 2.73l0.34 6.42-0.65 0.13c-2.7-5.19-5.81-7.73-10.6-7.73-7.96 0-11.1 7.56-11.1 14.25 0 8.25 5.2 14.67 12 14.67 4.7 0 8.16-2.39 10.47-5.65l0.96 0.96c-3.1 4.64-7.38 6.78-12.55 6.78z" fill="#B69853"/>
  <path d="m192.1 140.4v-0.09c0.71-1.54 1.04-2.95 1.04-6.16v-18.88c0-3.18-0.28-4.63-1.05-6.21v-0.08h6.26v0.08c-0.82 1.54-1.1 2.99-1.1 6.17v8.21h15.44v-8.17c0-3.05-0.28-4.63-1.1-6.21v-0.08h6.26v0.08c-0.82 1.54-1.1 3.03-1.1 6.17v18.97c0 3.17 0.29 4.57 1.01 6.12v0.08h-6.31v-0.08c0.82-1.55 1.24-3.07 1.24-6.16v-9.15h-15.44v9.24c0 3.09 0.33 4.52 1.14 6.07v0.08h-6.29z" fill="#B69853"/>
  <path d="m247.3 113.4-0.37-0.17c-1.77-2.38-3.87-3.03-7.69-3.03h-2.43v24.04c0 3.05 0.28 4.55 1.15 6.12v0.08h-5.92v-0.08c0.77-1.55 0.96-3.2 0.96-6.2v-23.96h-2.38c-3.82 0-5.92 0.65-7.69 3.03l-0.37 0.17 0.32-4.38h24.01l0.41 4.38z" fill="#B69853"/>
</svg>